<?xml version="1.0" encoding="utf-8"?>
<!-- Generator: Adobe Illustrator 16.0.0, SVG Export Plug-In . SVG Version: 6.00 Build 0)  -->
<!DOCTYPE svg PUBLIC "-//W3C//DTD SVG 1.1//EN" "http://www.w3.org/Graphics/SVG/1.1/DTD/svg11.dtd">
<svg version="1.1" xmlns="http://www.w3.org/2000/svg" xmlns:xlink="http://www.w3.org/1999/xlink" x="0px" y="0px" width="144px"
	 height="144px" viewBox="0 0 144 144" enable-background="new 0 0 144 144" xml:space="preserve">
<g id="Layer_1">
	<circle fill="#FFFFFF" cx="72" cy="72" r="72"/>
	<g>
		<ellipse cx="30.031" cy="54.754" rx="8.509" ry="12.143"/>
		<g>
			<path fill="#FFFFFF" d="M112.854,90.439c0,30.646-19.791,44.502-44.206,44.502c-24.412,0-44.203-12.144-44.203-42.789
				c0-30.645,19.791-68.188,44.203-68.188C93.063,23.964,112.854,59.794,112.854,90.439z"/>
			<path d="M113,90.45c0,0,0.004,1.233-0.084,3.547c-0.02,0.578-0.016,1.225-0.039,1.936c-0.082,0.711-0.157,1.487-0.253,2.327
				c-0.092,0.842-0.186,1.746-0.291,2.711c-0.145,0.958-0.377,1.962-0.581,3.033c-0.215,1.069-0.409,2.205-0.813,3.347
				c-0.359,1.151-0.652,2.393-1.115,3.631c-0.512,1.227-1.042,2.502-1.594,3.826c-0.689,1.258-1.378,2.589-2.155,3.931
				c-0.444,0.636-0.896,1.282-1.355,1.938c-0.478,0.644-0.888,1.364-1.469,1.957c-1.121,1.215-2.166,2.6-3.533,3.714
				c-0.662,0.584-1.332,1.176-2.012,1.774c-0.737,0.523-1.485,1.054-2.241,1.59c-0.38,0.269-0.762,0.538-1.146,0.81
				c-0.409,0.23-0.819,0.461-1.232,0.693c-0.836,0.455-1.68,0.914-2.533,1.379c-7.012,3.348-15.503,4.936-24.243,4.467
				c-2.078-0.044-4.368-0.365-6.626-0.63c-2.222-0.442-4.469-0.816-6.677-1.537c-4.415-1.327-8.837-3.21-12.728-6.058
				c-7.877-5.568-13.389-14.481-15.282-24.169l-0.422-1.806l-0.252-1.837c-0.154-1.227-0.366-2.452-0.472-3.687
				c-0.072-1.237-0.144-2.477-0.216-3.718c-0.025-0.626-0.095-1.229-0.083-1.877l0.005-1.845c-0.007-5.005,0.519-9.987,1.381-14.93
				c1.74-9.865,4.91-19.571,9.827-28.28c2.422-4.369,5.277-8.486,8.584-12.205c0.799-0.951,1.71-1.81,2.564-2.708
				c0.922-0.84,1.798-1.72,2.783-2.49c1.893-1.614,3.974-3.017,6.151-4.239c4.377-2.451,9.315-3.841,14.413-3.725l1.665,0.073
				c0.601,0.054,1.261,0.152,1.886,0.233c0.648,0.07,1.243,0.196,1.824,0.335c0.584,0.144,1.184,0.238,1.749,0.427
				c2.295,0.677,4.444,1.623,6.465,2.699c3.999,2.225,7.425,5.018,10.31,8.044c2.888,3.031,5.272,6.267,7.268,9.521
				c4.009,6.51,6.493,13.03,8.297,18.845c0.886,2.92,1.545,5.692,2.127,8.252c0.513,2.578,0.952,4.945,1.259,7.097
				c0.589,4.306,0.857,7.706,0.937,10.029c0.062,1.16-0.019,2.052-0.002,2.651c0.006,0.601-0.043,0.91-0.043,0.91V90.45z
				 M113,90.439c0,0-0.208-0.308-0.226-0.903c-0.03-0.596-0.118-1.48-0.206-2.631c-0.123-2.301-0.477-5.682-1.341-9.896
				c-0.813-4.218-2.298-9.258-4.588-14.754c-1.159-2.742-2.519-5.602-4.117-8.508c-1.589-2.912-3.497-5.827-5.59-8.749
				c-1.055-1.457-2.208-2.88-3.401-4.3c-0.594-0.712-1.234-1.392-1.855-2.1c-0.653-0.675-1.313-1.354-1.992-2.021
				c-2.755-2.613-5.812-5.077-9.29-6.891c-1.745-0.879-3.566-1.633-5.464-2.15c-0.472-0.144-0.955-0.224-1.434-0.343
				c-0.483-0.12-0.962-0.224-1.413-0.268c-0.468-0.059-0.899-0.141-1.4-0.193l-1.665-0.079l-0.417-0.02
				c-0.143-0.003,0.076-0.002,0.021,0l-0.093,0.005l-0.186,0.009l-0.745,0.036c-0.497,0.026-0.997,0.023-1.492,0.118l-1.495,0.21
				l-1.483,0.351c-1.96,0.555-3.946,1.219-5.816,2.258c-1.878,1.002-3.721,2.172-5.437,3.575c-0.889,0.656-1.691,1.442-2.546,2.167
				c-0.795,0.797-1.645,1.543-2.402,2.398c-3.132,3.313-5.902,7.099-8.339,11.148c-2.445,4.046-4.597,8.343-6.42,12.809
				c-1.848,4.456-3.41,9.076-4.55,13.809c-1.117,4.729-1.927,9.574-2.197,14.407l-0.068,1.843c-0.032,0.581,0.017,1.204,0.021,1.804
				c0.029,1.211,0.059,2.421,0.088,3.629c0.067,1.205,0.278,2.394,0.408,3.589l0.224,1.789l0.391,1.752
				c0.936,4.687,2.75,9.17,5.404,12.979c2.604,3.844,6.038,6.983,9.849,9.293c3.803,2.353,8.035,3.738,12.205,4.681
				c2.072,0.543,4.213,0.737,6.277,1.04c2.076,0.151,4.059,0.381,6.231,0.347c8.23,0.262,15.892-1.182,22.481-3.71
				c6.496-2.736,11.798-6.815,15.384-11.453c0.852-1.186,1.627-2.377,2.411-3.513c0.636-1.225,1.248-2.405,1.836-3.54
				c0.981-2.359,1.903-4.561,2.338-6.662c0.255-1.039,0.54-2.018,0.731-2.951c0.143-0.943,0.276-1.828,0.4-2.65
				c0.115-0.826,0.223-1.59,0.321-2.29c0.034-0.71,0.264-1.355,0.292-1.934c0.102-2.313,0.354-3.547,0.354-3.547V90.439z"/>
		</g>
		<polygon fill="#FFFFFF" points="102.752,118.482 106.704,118.077 110.802,110.676 114.279,96.891 115.03,83.357 108.641,83.732 		
			"/>
		<path fill="none" stroke="#000000" stroke-width="3" stroke-miterlimit="10" d="M27.132,81.002c0-6.98,4.35-12.64,9.711-12.64
			c5.364,0,9.713,5.66,9.713,12.64c0,6.978-4.349,12.637-9.713,12.637C31.482,93.639,27.132,87.979,27.132,81.002z"/>
		<ellipse cx="71.318" cy="60.883" rx="8.508" ry="12.143"/>
		<g>
			<path d="M43.05,38.422c0,0-0.24-0.564-0.555-1.584c-0.314-1.019-0.717-2.492-1.02-4.3c-0.16-0.903-0.299-1.891-0.384-2.944
				c-0.075-1.055-0.158-2.174-0.112-3.346c0.016-1.168,0.141-2.392,0.366-3.635c0.229-1.246,0.627-2.516,1.225-3.754
				c0.605-1.225,1.562-2.426,2.827-3.219c1.251-0.796,2.765-1.157,4.064-1.049c0.336-0.006,0.657,0.02,0.961,0.087
				c0.309,0.05,0.614,0.107,0.913,0.168c0.584,0.147,1.119,0.359,1.652,0.531c1.017,0.428,1.944,0.88,2.719,1.402
				c0.813,0.464,1.479,0.991,2.067,1.455c0.604,0.439,1.08,0.885,1.468,1.254c0.782,0.729,1.2,1.17,1.2,1.17
				s-0.574-0.229-1.53-0.673c-0.473-0.229-1.056-0.489-1.726-0.765c-0.666-0.285-1.411-0.607-2.234-0.893
				c-0.812-0.328-1.715-0.552-2.635-0.813c-0.466-0.072-0.942-0.189-1.419-0.235c-0.469,0.016-0.963-0.12-1.415-0.027
				c-0.948,0.009-1.771,0.339-2.483,0.817c-0.699,0.504-1.316,1.224-1.757,2.151c-0.454,0.914-0.799,1.938-1.055,3
				c-0.239,1.067-0.441,2.147-0.563,3.221c-0.284,2.141-0.366,4.201-0.439,5.978c-0.053,1.777-0.085,3.278-0.104,4.334
				C43.062,37.816,43.05,38.422,43.05,38.422z"/>
		</g>
		<g>
			<path d="M54.91,18.26c0,0,0.093-0.508,0.368-1.36c0.277-0.851,0.718-2.06,1.442-3.423c0.71-1.371,1.671-2.925,3.011-4.401
				c0.653-0.749,1.435-1.454,2.288-2.112c0.872-0.645,1.855-1.205,2.929-1.628c1.094-0.377,2.27-0.615,3.446-0.579
				c0.579,0.051,1.169,0.073,1.711,0.241c0.272,0.074,0.543,0.148,0.813,0.221c0.259,0.093,0.505,0.211,0.753,0.317
				c0.99,0.428,1.82,1.021,2.531,1.625c0.374,0.287,0.67,0.624,0.97,0.935c0.301,0.312,0.575,0.621,0.805,0.942
				c0.237,0.313,0.464,0.612,0.68,0.896c0.185,0.303,0.359,0.591,0.523,0.862c0.336,0.531,0.584,1.017,0.764,1.431
				c0.377,0.816,0.556,1.293,0.556,1.293s-0.4-0.335-1.037-0.94c-0.307-0.312-0.716-0.656-1.167-1.052
				c-0.439-0.41-0.968-0.826-1.532-1.269c-0.273-0.235-0.58-0.443-0.903-0.645c-0.32-0.202-0.621-0.455-0.978-0.622
				c-0.678-0.393-1.406-0.751-2.169-0.975c-0.755-0.28-1.552-0.326-2.34-0.351c-0.793,0.035-1.591,0.2-2.379,0.48
				c-0.788,0.299-1.554,0.717-2.296,1.189c-0.725,0.507-1.442,1.032-2.096,1.622c-0.66,0.577-1.283,1.175-1.857,1.77
				c-0.577,0.591-1.118,1.17-1.608,1.718c-0.973,1.101-1.772,2.06-2.335,2.738C55.233,17.868,54.91,18.26,54.91,18.26z"/>
		</g>
		<g>
			<path d="M76.258,11.144c0,0,0.517-0.305,1.486-0.7c0.969-0.394,2.395-0.881,4.195-1.186c0.901-0.14,1.896-0.266,2.968-0.245
				c1.07,0.021,2.225,0.099,3.408,0.417c1.178,0.318,2.391,0.841,3.481,1.636c1.114,0.774,2,1.892,2.667,3.067
				c0.688,1.191,1.01,2.486,1.254,3.736c0.087,0.625,0.142,1.247,0.184,1.857c-0.007,0.604-0.014,1.2-0.02,1.787
				c-0.102,1.155-0.245,2.259-0.481,3.274c-0.168,1.031-0.5,1.956-0.75,2.818c-0.256,0.86-0.59,1.616-0.851,2.292
				c-0.246,0.68-0.558,1.239-0.778,1.709c-0.46,0.934-0.754,1.45-0.754,1.45s0.046-0.601,0.183-1.622
				c0.063-0.512,0.168-1.125,0.24-1.833c0.082-0.701,0.175-1.492,0.275-2.354c0.056-0.862,0.186-1.785,0.215-2.754
				c0.078-0.972,0.037-1.982,0.04-3.015c-0.038-0.508-0.078-1.024-0.118-1.547c-0.081-0.505-0.163-1.016-0.246-1.531
				c-0.262-0.983-0.511-1.99-1.021-2.822c-0.473-0.848-1.055-1.62-1.807-2.206c-0.745-0.592-1.6-1.057-2.504-1.409
				c-0.912-0.334-1.862-0.567-2.79-0.725c-0.931-0.138-1.838-0.218-2.685-0.268c-0.847-0.015-1.638-0.044-2.34-0.021
				c-0.702,0.022-1.322,0.042-1.834,0.074C76.854,11.087,76.258,11.144,76.258,11.144z"/>
		</g>
		<path fill="#FFFFFF" stroke="#000000" stroke-width="3" stroke-miterlimit="10" d="M39.542,67.607c0,0-16.626-0.627-18.127,11.625
			l25.002-0.75C46.417,78.482,46.417,69.608,39.542,67.607z"/>
		<g>
			<path d="M76.457,88.9c0,0,0.747-0.341,2.081-0.855c1.335-0.515,3.253-1.216,5.592-1.935c1.168-0.365,2.437-0.751,3.792-1.105
				c1.354-0.362,2.784-0.749,4.28-1.071c1.495-0.325,3.039-0.687,4.628-0.952c1.587-0.275,3.206-0.531,4.835-0.751
				c1.631-0.196,3.271-0.36,4.898-0.44c1.626-0.099,3.24-0.073,4.811,0.001c1.571,0.068,3.102,0.279,4.552,0.654
				c1.438,0.365,2.852,0.935,3.912,1.983c0.521,0.523,0.916,1.179,1.079,1.847c0.182,0.672,0.104,1.302,0.016,1.846
				c-0.24,1.085-0.698,1.878-1.104,2.483c-0.398,0.613-0.769,1.045-1.022,1.335c-0.256,0.287-0.393,0.439-0.393,0.439
				s0.086-0.186,0.248-0.533c0.172-0.339,0.389-0.858,0.634-1.509c0.248-0.645,0.463-1.473,0.496-2.348
				c0.012-0.889-0.323-1.716-1.098-2.272c-0.379-0.289-0.882-0.505-1.431-0.676c-0.545-0.177-1.15-0.313-1.791-0.402
				c-1.28-0.188-2.69-0.214-4.156-0.207c-1.469,0.011-2.996,0.14-4.553,0.262c-1.557,0.142-3.144,0.308-4.729,0.512
				c-1.589,0.181-3.178,0.396-4.74,0.633c-1.566,0.233-3.107,0.463-4.599,0.685c-2.993,0.46-5.787,0.89-8.182,1.259
				c-2.401,0.371-4.415,0.649-5.829,0.839C77.272,88.811,76.457,88.9,76.457,88.9z"/>
		</g>
		<g>
			<path d="M87.028,95.99c0,0,0.728-0.299,2.024-0.737c1.298-0.439,3.162-1.03,5.433-1.61c1.134-0.295,2.367-0.604,3.683-0.874
				c1.313-0.278,2.702-0.572,4.153-0.795c1.45-0.226,2.95-0.48,4.491-0.628c1.54-0.158,3.11-0.289,4.694-0.363
				c1.584-0.05,3.179-0.053,4.761,0.063c1.585,0.11,3.151,0.35,4.682,0.785c1.502,0.429,3.095,1.113,4.171,2.573
				c0.522,0.727,0.782,1.644,0.75,2.444c-0.018,0.811-0.246,1.501-0.51,2.096c-0.528,1.198-1.24,2.071-1.877,2.813
				c-0.645,0.735-1.261,1.311-1.779,1.766c-0.509,0.466-0.943,0.79-1.231,1.019c-0.292,0.223-0.448,0.342-0.448,0.342
				s0.112-0.161,0.324-0.462c0.218-0.294,0.523-0.736,0.908-1.293c0.388-0.554,0.824-1.25,1.294-2.041
				c0.445-0.8,0.914-1.729,1.187-2.721c0.289-1.013,0.188-1.981-0.394-2.599c-0.6-0.656-1.767-1.104-3.05-1.379
				c-1.287-0.29-2.726-0.365-4.185-0.438c-1.468-0.043-2.977-0.035-4.492,0.026c-1.517,0.037-3.04,0.129-4.541,0.249
				c-1.505,0.122-2.986,0.243-4.419,0.359c-2.881,0.272-5.569,0.526-7.874,0.744c-2.311,0.229-4.249,0.393-5.61,0.503
				C87.809,95.934,87.028,95.99,87.028,95.99z"/>
		</g>
		<g>
			<path d="M96.243,102.436c0,0,0.729-0.208,2.021-0.475s3.149-0.606,5.4-0.85c1.126-0.125,2.35-0.247,3.651-0.297
				c1.302-0.058,2.682-0.108,4.117-0.037c1.436,0.07,2.937,0.151,4.473,0.461c1.532,0.344,3.141,0.678,4.757,1.903
				c0.394,0.315,0.777,0.737,1.072,1.254c0.312,0.515,0.459,1.146,0.499,1.743c0.019,1.205-0.436,2.137-0.887,2.889
				c-0.461,0.767-1.003,1.375-1.557,1.933c-0.553,0.558-1.117,1.061-1.688,1.521c-1.13,0.936-2.29,1.71-3.401,2.402
				c-1.104,0.705-2.186,1.299-3.189,1.826c-0.999,0.536-1.938,0.98-2.773,1.365c-0.83,0.393-1.574,0.693-2.18,0.952
				c-1.224,0.495-1.938,0.746-1.938,0.746s0.588-0.48,1.642-1.265c1.044-0.785,2.535-1.906,4.324-3.252
				c0.872-0.681,1.817-1.418,2.816-2.198c0.984-0.786,1.975-1.659,2.955-2.562c0.957-0.905,1.903-1.938,2.484-2.952
				c0.293-0.503,0.426-0.995,0.418-1.289c-0.039-0.268-0.119-0.487-0.509-0.803c-0.75-0.638-2.128-1.089-3.438-1.381
				c-1.343-0.283-2.722-0.524-4.076-0.667c-2.712-0.304-5.299-0.449-7.522-0.579c-2.237-0.112-4.101-0.207-5.405-0.272
				C96.995,102.479,96.243,102.436,96.243,102.436z"/>
		</g>
	</g>
</g>
<g id="Layer_2">
</g>
</svg>
